<svg width="44" height="41" viewBox="0 0 44 41" fill="none" xmlns="http://www.w3.org/2000/svg">
<path d="M41.5213 11.623H30.118L24.9588 17.3831C24.2601 18.163 23.3352 18.5926 22.3556 18.5926C21.351 18.5926 20.41 18.1439 19.7056 17.3294C18.3448 15.754 18.2951 13.2671 19.5387 11.6231H2.4787C1.1098 11.623 0 12.8842 0 14.4404V15.3796C0 16.9125 1.07869 18.158 2.42138 18.1927L5.09377 36.7899C5.41698 39.0419 7.13023 40.6958 9.13816 40.6958H34.8575C36.866 40.6958 38.578 39.0419 38.9018 36.7899L41.5748 18.1927C42.9182 18.1602 44 16.9146 44 15.3796V14.4404C44 12.8842 42.8902 11.623 41.5213 11.623ZM13.1975 35.6181C12.9777 35.8947 12.6644 36.0533 12.3368 36.0533H11.6898C11.1125 36.0533 10.6236 35.5707 10.5426 34.9217L9.11952 23.4878C9.07277 23.1099 9.17177 22.7277 9.39159 22.4396C9.61151 22.1523 9.93102 21.9867 10.2666 21.9867H11.2831C11.8766 21.9867 12.3735 22.4956 12.4352 23.1658L13.489 34.6004C13.5226 34.9712 13.4167 35.3406 13.1975 35.6181ZM19.829 35.6562C19.6115 35.9097 19.3126 36.0533 19.0006 36.0533H18.338C17.7251 36.0533 17.2183 35.5105 17.1822 34.8155L16.5843 23.381C16.5656 23.0192 16.6789 22.664 16.8975 22.4007C17.1167 22.1367 17.4213 21.9866 17.7408 21.9866H18.7734C19.403 21.9866 19.9169 22.5585 19.9311 23.2726L20.159 34.7071C20.1659 35.0611 20.047 35.4036 19.829 35.6562ZM26.8142 34.8155C26.7774 35.5105 26.2705 36.0533 25.6577 36.0533H24.995C24.6831 36.0533 24.3847 35.9097 24.1673 35.6562C23.9487 35.4036 23.8298 35.0611 23.8367 34.7072L24.0653 23.2727C24.079 22.5586 24.5934 21.9867 25.2231 21.9867H26.2556C26.5739 21.9867 26.8796 22.1368 27.0982 22.4008C27.3169 22.6641 27.4301 23.0193 27.4115 23.3811L26.8142 34.8155ZM34.8762 23.4878L33.4531 34.9217C33.3728 35.5706 32.8832 36.0533 32.3066 36.0533H31.6595C31.3313 36.0533 31.018 35.8947 30.7987 35.6181C30.5789 35.3406 30.473 34.9712 30.5073 34.6004L31.5605 23.1658C31.6221 22.4956 32.1197 21.9867 32.7126 21.9867H33.7291C34.0648 21.9867 34.3836 22.1523 34.6035 22.4396C34.8239 22.7277 34.9235 23.1099 34.8762 23.4878Z" fill="#7E7A7A"/>
<path d="M23.8576 16.1084L34.1598 4.60883C35.0044 3.66537 35.0162 2.12328 34.1866 1.16361C33.3571 0.203946 31.9994 0.189786 31.1549 1.13256L20.8533 12.6335C20.0087 13.5762 19.9969 15.1183 20.8258 16.078C21.6561 17.0376 23.0124 17.0518 23.8576 16.1084Z" fill="#7E7A7A"/>
</svg>
