<svg width="34" height="35" viewBox="0 0 34 35" fill="none" xmlns="http://www.w3.org/2000/svg">
<path d="M24.9903 21.3179C28.2866 16.0868 27.6623 9.07747 23.1106 4.52565C17.8308 -0.754644 9.24018 -0.754644 3.95982 4.52565C-1.31994 9.80601 -1.31994 18.3961 3.95982 23.6758C8.51104 28.2276 15.5221 28.8512 20.7526 25.5555L29.7618 34.5652L34 30.3277L24.9903 21.3179ZM19.6923 20.2576C16.2976 23.6536 10.7734 23.6536 7.37802 20.2576C3.98326 16.8629 3.98386 11.3393 7.37861 7.94391C10.7734 4.54916 16.2976 4.54856 19.6923 7.94338C23.0871 11.3393 23.0871 16.8629 19.6923 20.2576Z" fill="#7E7A7A"/>
</svg>
